<svg xmlns="http://www.w3.org/2000/svg" xml:space="preserve" viewBox="0 0 122.879 122.879">
  <path fill="#FF4141" fill-rule="evenodd" d="M61.44 0c33.933 0 61.439 27.507 61.439 61.439s-27.506 61.439-61.439 61.439C27.507 122.879 0 95.372 0 61.439S27.507 0 61.44 0zm12.011 39.151c2.75-2.793 7.221-2.805 9.986-.027 2.764 2.776 2.775 7.292.027 10.083L71.4 61.445l12.076 12.249c2.729 2.77 2.689 7.257-.08 10.022-2.773 2.765-7.23 2.758-9.955-.013L61.446 71.54 49.428 83.728c-2.75 2.793-7.22 2.805-9.986.027-2.763-2.776-2.776-7.293-.027-10.084L51.48 61.434 39.403 49.185c-2.728-2.769-2.689-7.256.082-10.022 2.772-2.765 7.229-2.758 9.953.013l11.997 12.165 12.016-12.19z" clip-rule="evenodd"/>
</svg>