<svg xmlns="http://www.w3.org/2000/svg" width="512" height="512" fill="none" viewBox="0 0 512 512">
  <path fill="#fff" d="M135.086 95.086c-22.091 0-40 17.908-40 40v243.291c0 22.091 17.909 40 40 40h243.291c22.091 0 40-17.909 40-40V135.086c0-22.092-17.908-40-40-40H135.086Zm238.662 14.629c16.569 0 30 13.431 30 30v234.034c0 16.568-13.431 30-30 30H139.714c-16.568 0-30-13.432-30-30V139.715c0-16.569 13.432-30 30-30h234.034Z"/>
  <path fill="#fff" d="M361.806 381.806c11.045 0 20-8.955 20-20V151.657c0-11.045-8.955-20-20-20H151.657c-11.046 0-20 8.955-20 20v210.149c0 11.045 8.954 20 20 20h210.149Zm-203.52-14.629c-6.627 0-12-5.373-12-12V158.286c0-6.627 5.373-12 12-12h196.892c6.627 0 11.999 5.373 11.999 12v196.891c0 6.627-5.373 12-12 12H158.286Z"/>
  <path fill="#D9D9D9" d="M433.006 219.429h43.886v16.091h-43.886z"/>
  <ellipse cx="476.891" cy="227.474" fill="#D9D9D9" rx="7.314" ry="8.046"/>
  <path fill="#D9D9D9" d="M433.006 160.914h43.886v16.091h-43.886z"/>
  <ellipse cx="476.891" cy="168.96" fill="#D9D9D9" rx="7.314" ry="8.046"/>
  <path fill="#D9D9D9" d="M433.006 277.943h43.886v16.091h-43.886z"/>
  <ellipse cx="476.891" cy="285.989" fill="#D9D9D9" rx="7.314" ry="8.046"/>
  <path fill="#D9D9D9" d="M433.006 336.457h43.886v16.091h-43.886z"/>
  <ellipse cx="476.891" cy="344.503" fill="#D9D9D9" rx="7.314" ry="8.046"/>
  <path fill="#D9D9D9" d="M80.457 219.429H36.571v16.091h43.886z"/>
  <ellipse cx="7.314" cy="8.046" fill="#D9D9D9" rx="7.314" ry="8.046" transform="matrix(-1 0 0 1 43.886 219.429)"/>
  <path fill="#D9D9D9" d="M80.457 160.914H36.571v16.091h43.886z"/>
  <ellipse cx="7.314" cy="8.046" fill="#D9D9D9" rx="7.314" ry="8.046" transform="matrix(-1 0 0 1 43.886 160.914)"/>
  <path fill="#D9D9D9" d="M80.457 277.943H36.571v16.091h43.886z"/>
  <ellipse cx="7.314" cy="8.046" fill="#D9D9D9" rx="7.314" ry="8.046" transform="matrix(-1 0 0 1 43.886 277.943)"/>
  <path fill="#D9D9D9" d="M80.457 336.457H36.571v16.091h43.886z"/>
  <ellipse cx="7.314" cy="8.046" fill="#D9D9D9" rx="7.314" ry="8.046" transform="matrix(-1 0 0 1 43.886 336.457)"/>
  <path fill="#D9D9D9" d="M294.034 433.006v43.886h-16.091v-43.886z"/>
  <ellipse cx="285.989" cy="476.891" fill="#D9D9D9" rx="7.314" ry="8.046" transform="rotate(90 285.989 476.891)"/>
  <path fill="#D9D9D9" d="M352.549 433.006v43.886h-16.091v-43.886z"/>
  <ellipse cx="344.503" cy="476.891" fill="#D9D9D9" rx="7.314" ry="8.046" transform="rotate(90 344.503 476.891)"/>
  <path fill="#D9D9D9" d="M235.52 433.006v43.886h-16.091v-43.886z"/>
  <ellipse cx="227.474" cy="476.891" fill="#D9D9D9" rx="7.314" ry="8.046" transform="rotate(90 227.474 476.891)"/>
  <path fill="#D9D9D9" d="M177.006 433.006v43.886h-16.091v-43.886z"/>
  <ellipse cx="168.96" cy="476.891" fill="#D9D9D9" rx="7.314" ry="8.046" transform="rotate(90 168.96 476.891)"/>
  <path fill="#D9D9D9" d="M294.034 80.457V36.571h-16.091v43.886z"/>
  <ellipse cx="7.314" cy="8.046" fill="#D9D9D9" rx="7.314" ry="8.046" transform="matrix(0 -1 -1 0 294.034 43.886)"/>
  <path fill="#D9D9D9" d="M352.549 80.457V36.571h-16.091v43.886z"/>
  <ellipse cx="7.314" cy="8.046" fill="#D9D9D9" rx="7.314" ry="8.046" transform="matrix(0 -1 -1 0 352.549 43.886)"/>
  <path fill="#D9D9D9" d="M235.52 80.457V36.571h-16.091v43.886z"/>
  <ellipse cx="7.314" cy="8.046" fill="#D9D9D9" rx="7.314" ry="8.046" transform="matrix(0 -1 -1 0 235.52 43.886)"/>
  <path fill="#D9D9D9" d="M177.006 80.457V36.571h-16.091v43.886z"/>
  <ellipse cx="7.314" cy="8.046" fill="#D9D9D9" rx="7.314" ry="8.046" transform="matrix(0 -1 -1 0 177.006 43.886)"/>
  <rect width="32.183" height="32.183" x="201.356" y="246.799" fill="#D9D9D9" rx="5"/>
  <path fill="#D9D9D9" d="M187.146 237.922a4 4 0 0 1 4.899-2.828l45.599 12.218a4 4 0 0 1 2.828 4.899l-1.791 6.685a4 4 0 0 1-4.899 2.828l-45.598-12.218a4 4 0 0 1-2.829-4.899l1.791-6.685Z"/>
  <rect width="32.183" height="32.183" fill="#D9D9D9" rx="5" transform="matrix(-1 0 0 1 309.607 246.797)"/>
  <path fill="#D9D9D9" d="M323.817 237.921a4 4 0 0 0-4.899-2.829L273.32 247.31a4.001 4.001 0 0 0-2.829 4.899l1.792 6.685a4 4 0 0 0 4.898 2.829l45.599-12.218a4 4 0 0 0 2.828-4.899l-1.791-6.685Z"/>
</svg>
